<?xml version="1.0" encoding="utf-8"?>
<!-- Generator: Adobe Illustrator 22.1.0, SVG Export Plug-In . SVG Version: 6.00 Build 0)  -->
<svg version="1.1" id="Camada_1" xmlns="http://www.w3.org/2000/svg" xmlns:xlink="http://www.w3.org/1999/xlink" x="0px" y="0px"
	 viewBox="0 0 1080 1080" style="enable-background:new 0 0 1080 1080;" xml:space="preserve">
<style type="text/css">
	.st0{fill-rule:evenodd;clip-rule:evenodd;fill:#EB5F0A;}
	.st1{fill:#EB5F0A;}
	.st2{fill:#575756;}
</style>
<g>
	<path class="st0" d="M387.3,599.1c-1.8,8.5-3.7,16.2-5.6,22.9c-5.4,18.7-11.1,30.2-16.8,41.6c-6.1,1.2-19.7,2.8-25.9,3.2
		c5.3,23.6,15.5,43.9,14.1,66.9c43-63.3,65.5-137.2,65.5-213.5c0-215.4-178.2-386.6-392.1-380c2.7,1.9,5.3,3.8,9.8,7.2
		c4.4,3.4,10.7,8.2,16.9,13.1c78.6,65.1,129.5,158.9,139.9,261.9c4.7,46.6,17,83,46,117.9c5.4-3,10.7-5.9,15.7-8.4
		c6.5-3.3,12.6-6,15.6-7.4c3-1.4,3-1.4,3.9,0.7c0.9,2.1,2.8,6.3,4.6,11.8c1.8,5.6,3.6,12.5,4.7,18.1c1,5.5,1.3,9.7,1.5,11.7
		c0.1,2.1,0.1,2.1,3.2,1.7c3.1-0.4,9.3-1.2,15.7-1.7c6.4-0.5,12.9-0.8,17.8-0.6c4.9,0.2,8.1,0.8,9.5,1c1.5,0.3,1.2,0.2,0.7,3.6
		c-0.5,3.4-1.3,10.2-1.9,14.7c-0.5,4.5-0.8,6.6-0.9,7.7c-0.1,0.7-0.1,1,0.5,1.3l0,0c3.5,0.4,12.1,2.9,16.2,2.8h0l1.9,0.3
		c7.3,1,16.5,1.8,24.3,2C377.8,599.8,382.7,599.5,387.3,599.1z"/>
	<path class="st1" d="M587.9,568l-5.8,37.2H567c-19.4,0-33.6-5.2-42.9-15.5c-9.2-10.3-13.9-23.2-13.9-38.6V268.4h45.2v259
		c0,18,1.9,29.2,5.8,33.8C565.1,565.7,574,568,587.9,568z"/>
	<path class="st1" d="M804.7,495.8H652.4c5,47,30.4,70.5,76.2,70.5c22.8,0,44.2-4.9,64.3-14.6l4.4,36.8
		c-23.7,11.2-48.1,16.8-73.2,16.8c-37.3,0-66.3-10.9-87.3-32.8c-20.8-21.9-31.3-49.2-31.3-82c0-31.9,9.6-58.7,28.8-80.2
		c19.2-21.6,45.1-32.4,77.6-32.4c28.1,0,50.9,8.4,68.5,25.3c17.6,16.8,26.4,39.6,26.4,68.3C806.9,480.3,806.1,488.4,804.7,495.8
		L804.7,495.8z M712.9,416.9c-30.4,0-49.5,16-57.2,47.9h106c0-14.5-4.1-26.1-12.2-34.8C741.3,421.2,729.1,416.9,712.9,416.9z"/>
	<polygon class="st1" points="1028.1,600.8 976.7,600.8 926.8,528.1 876.9,600.8 825.5,600.8 900,491.8 826.8,382.3 878.2,382.3 
		928,459.9 973.6,382.3 1026.7,382.3 952.5,490.5 	"/>
	<path class="st2" d="M537.5,728.2l-1,5.5h-2.3c-3.5,0-6-0.9-7.6-2.7c-1.6-1.8-2.4-4-2.4-6.6v-50.5h7.1v46.5c0,3.3,0.4,5.4,1.1,6.4
		C533.1,727.7,534.9,728.2,537.5,728.2z"/>
	<path class="st2" d="M575,728.2l-1.1,5.5h-0.6c-3.1,0-5.4-0.4-6.6-1.3c-1.3-0.8-2.4-2.3-3.3-4.2c-3.2,3.7-7.2,5.5-11.8,5.5
		c-3.5,0-6.3-1-8.5-3.1c-2.1-2.1-3.2-4.7-3.2-8c0-2.6,0.7-4.8,2.1-6.7c1.4-1.9,3.3-3.3,5.7-4.3c2.4-1,4.8-1.7,7.3-2.1
		c2.5-0.4,5.1-0.7,7.8-0.7c0-3.5-0.7-5.8-2-7c-1.3-1.2-3.5-1.8-6.4-1.8c-3.4,0-6.8,1.2-10.1,3.5l-1-5.7c3.4-2.7,7.8-4,13-4
		c4.9,0,8.4,1.4,10.5,4.1c2.1,2.7,3.1,7.5,3.1,14.4v7.9c0,3.1,0.3,5.2,0.8,6.4c0.5,1.2,1.7,1.8,3.6,1.8H575L575,728.2z M562.9,722.9
		v-9.3c-5.7,0.2-9.7,1-12.2,2.3c-2.4,1.3-3.7,3.4-3.7,6.3c0,4,2,6,6,6c1.9,0,3.7-0.5,5.5-1.4C560.3,725.8,561.7,724.5,562.9,722.9z"
		/>
	<path class="st2" d="M599.9,733.7c-1.9,0-4-0.5-6.4-1.5c-2.3-1-4.1-2.4-5.5-4.2l-0.8,4.9h-6.7v-59h7.5v24.6c2.7-3.3,6.7-5,11.9-5
		c5.1,0,9.3,2,12.5,5.9c3.2,3.9,4.8,8.7,4.8,14.2c0,5.6-1.7,10.4-5,14.2C608.9,731.7,604.8,733.7,599.9,733.7L599.9,733.7z
		 M599.1,699.9c-3.1,0-5.8,1.2-8,3.6c-2.3,2.4-3.4,5.8-3.4,10.1c0,4.5,1.1,7.9,3.4,10.3c2.3,2.3,5,3.5,8.1,3.5c3.3,0,6-1.3,8-4
		c2-2.6,3-5.9,3-9.8c0-4-1-7.3-3-9.9C605,701.2,602.4,699.9,599.1,699.9z"/>
	<path class="st2" d="M654.8,728c-3.4,3.8-8,5.7-13.9,5.7c-5.9,0-10.5-1.9-13.9-5.7c-3.4-3.8-5.1-8.6-5.1-14.3
		c0-5.8,1.7-10.5,5.1-14.3c3.4-3.8,8-5.7,13.9-5.7c5.9,0,10.5,1.9,13.9,5.7c3.4,3.8,5.1,8.6,5.1,14.3
		C659.9,719.4,658.2,724.2,654.8,728L654.8,728z M649.7,703.5c-2.1-2.4-5-3.6-8.8-3.6c-3.8,0-6.7,1.2-8.8,3.6
		c-2.1,2.4-3.1,5.8-3.1,10.1c0,4.4,1,7.7,3.1,10.1c2.1,2.4,5,3.6,8.8,3.6c3.8,0,6.7-1.2,8.8-3.6c2.1-2.4,3.1-5.8,3.1-10.1
		C652.8,709.3,651.8,705.9,649.7,703.5z"/>
	<path class="st2" d="M687.8,692.9l-1.6,7.9h-2.4c-1.6,0-3.3,0.5-5.1,1.5c-1.8,1-3.1,2.1-3.7,3.4v27.1h-7.5v-38.5h5.8l0.8,6.4
		c2.4-2.8,4.6-4.8,6.6-6c2-1.2,4.1-1.9,6.4-1.9H687.8z"/>
	<path class="st2" d="M724.9,728.2l-1.1,5.5h-0.5c-3.1,0-5.4-0.4-6.6-1.3c-1.3-0.8-2.4-2.3-3.3-4.2c-3.2,3.7-7.2,5.5-11.8,5.5
		c-3.5,0-6.3-1-8.5-3.1c-2.1-2.1-3.2-4.7-3.2-8c0-2.6,0.7-4.8,2.1-6.7c1.4-1.9,3.3-3.3,5.7-4.3c2.4-1,4.8-1.7,7.3-2.1
		c2.5-0.4,5.1-0.7,7.8-0.7c0-3.5-0.7-5.8-2-7c-1.3-1.2-3.5-1.8-6.4-1.8c-3.4,0-6.7,1.2-10.1,3.5l-1-5.7c3.4-2.7,7.8-4,13-4
		c4.9,0,8.4,1.4,10.5,4.1c2.1,2.7,3.1,7.5,3.1,14.4v7.9c0,3.1,0.3,5.2,0.8,6.4c0.5,1.2,1.7,1.8,3.6,1.8H724.9L724.9,728.2z
		 M712.7,722.9v-9.3c-5.7,0.2-9.7,1-12.2,2.3c-2.4,1.3-3.7,3.4-3.7,6.3c0,4,2,6,6,6c1.9,0,3.7-0.5,5.5-1.4
		C710.1,725.8,711.6,724.5,712.7,722.9z"/>
	<path class="st2" d="M750.7,728.2l-0.6,5.5h-6.4c-3.4,0-5.9-0.9-7.6-2.7c-1.7-1.8-2.5-4-2.5-6.5v-24.6h-6.6l0.6-5.5h6v-9.5l7.1-0.7
		v10.2h10.1v5.5h-10.1v20.4c0,3.7,0.4,6,1.2,6.8c0.8,0.8,3.1,1.1,6.9,1.1H750.7z"/>
	<path class="st2" d="M787.5,728c-3.4,3.8-8,5.7-13.9,5.7c-5.9,0-10.5-1.9-13.9-5.7c-3.4-3.8-5.1-8.6-5.1-14.3
		c0-5.8,1.7-10.5,5.1-14.3c3.4-3.8,8-5.7,13.9-5.7c5.9,0,10.5,1.9,13.9,5.7c3.4,3.8,5.1,8.6,5.1,14.3
		C792.6,719.4,790.9,724.2,787.5,728L787.5,728z M782.4,703.5c-2.1-2.4-5-3.6-8.8-3.6c-3.8,0-6.7,1.2-8.8,3.6
		c-2.1,2.4-3.1,5.8-3.1,10.1c0,4.4,1,7.7,3.1,10.1c2.1,2.4,5,3.6,8.8,3.6c3.8,0,6.7-1.2,8.8-3.6c2.1-2.4,3.1-5.8,3.1-10.1
		C785.5,709.3,784.5,705.9,782.4,703.5L782.4,703.5z M781,681l-14.7,5v-3.2l14.7-7.5V681z"/>
	<path class="st2" d="M820.5,692.9l-1.6,7.9h-2.4c-1.6,0-3.3,0.5-5.1,1.5c-1.8,1-3.1,2.1-3.7,3.4v27.1h-7.5v-38.5h5.8l0.8,6.4
		c2.4-2.8,4.6-4.8,6.6-6c2-1.2,4.1-1.9,6.4-1.9H820.5z"/>
	<path class="st2" d="M832.5,685.7h-7.1v-7.9h7.1V685.7L832.5,685.7z M832.5,732.9h-7.1v-38.5h7.1V732.9z"/>
	<path class="st2" d="M872.7,728c-3.4,3.8-8,5.7-13.9,5.7c-5.9,0-10.5-1.9-13.9-5.7c-3.4-3.8-5.1-8.6-5.1-14.3
		c0-5.8,1.7-10.5,5.1-14.3c3.4-3.8,8-5.7,13.9-5.7c5.9,0,10.5,1.9,13.9,5.7c3.4,3.8,5.1,8.6,5.1,14.3
		C877.8,719.4,876.1,724.2,872.7,728L872.7,728z M867.6,703.5c-2.1-2.4-5-3.6-8.8-3.6c-3.8,0-6.7,1.2-8.8,3.6
		c-2.1,2.4-3.1,5.8-3.1,10.1c0,4.4,1,7.7,3.1,10.1c2.1,2.4,5,3.6,8.8,3.6c3.8,0,6.7-1.2,8.8-3.6c2.1-2.4,3.1-5.8,3.1-10.1
		C870.7,709.3,869.7,705.9,867.6,703.5z"/>
	<path class="st2" d="M937.1,732.9h-6.3L930,728c-1.4,1.8-3.2,3.2-5.5,4.2c-2.3,1-4.4,1.5-6.3,1.5c-4.9,0-9-1.9-12.3-5.8
		c-3.4-3.9-5-8.6-5-14.2c0-5.5,1.6-10.2,4.8-14.2c3.2-3.9,7.4-5.9,12.6-5.9c5.2,0,9.1,1.6,11.8,4.9v-24.5h7.1V732.9L937.1,732.9z
		 M918.7,699.9c-3.3,0-5.9,1.3-7.9,3.9c-2,2.6-2.9,5.9-2.9,9.9c0,3.9,1,7.1,2.9,9.8c2,2.6,4.6,4,7.9,4c3.2,0,6-1.1,8.4-3.4
		c2.4-2.3,3.6-5.6,3.6-10.1c0-4.4-1.2-7.8-3.7-10.3C924.7,701.1,921.9,699.9,918.7,699.9z"/>
	<path class="st2" d="M979.7,713.6h-28c0.9,9.2,5.7,13.8,14.5,13.8c4,0,7.7-0.8,11.1-2.3l1,5.6c-4.4,2-8.7,3-12.9,3
		c-6.5,0-11.7-1.9-15.3-5.8c-3.7-3.9-5.5-8.7-5.5-14.5c0-5.6,1.7-10.3,5.1-14.1c3.4-3.8,8-5.7,13.8-5.7c4.9,0,8.9,1.4,12,4.3
		c3.1,2.9,4.6,6.9,4.6,12C980,711.2,979.9,712.4,979.7,713.6L979.7,713.6z M963.1,699.9c-5.7,0-9.3,3-10.9,8.9h20.3
		c0-2.8-0.8-5-2.4-6.5C968.6,700.6,966.2,699.9,963.1,699.9z"/>
	<path class="st2" d="M557.2,809.2h-28c0.9,9.2,5.7,13.8,14.5,13.8c4,0,7.7-0.8,11.1-2.3l1,5.6c-4.4,2-8.7,3-12.9,3
		c-6.5,0-11.7-1.9-15.3-5.8c-3.7-3.9-5.5-8.7-5.5-14.5c0-5.6,1.7-10.3,5.1-14.1c3.4-3.8,8-5.7,13.8-5.7c4.9,0,8.9,1.4,12,4.3
		c3.1,2.9,4.6,6.9,4.6,12C557.6,806.7,557.5,807.9,557.2,809.2L557.2,809.2z M540.7,795.4c-5.7,0-9.3,3-10.9,8.9h20.3
		c0-2.8-0.8-5-2.4-6.5C546.2,796.2,543.8,795.4,540.7,795.4z"/>
	<polygon class="st2" points="596,828.4 588.2,828.4 578.5,813.2 568.5,828.4 560.6,828.4 574.1,809.2 561,789.9 568.8,789.9 
		578.5,805.2 587.4,789.9 595.6,789.9 582.9,808.7 	"/>
	<path class="st2" d="M621,829.2c-1.9,0-4.1-0.5-6.5-1.5c-2.4-1-4.3-2.4-5.6-4.1v23.9h-7.1v-57.6h5.5l0.8,5.5
		c1.8-2.2,3.6-3.7,5.6-4.8c1.9-1,4.4-1.5,7.4-1.5c5.1,0,9.3,2,12.3,5.9c3.1,3.9,4.6,8.7,4.6,14.2c0,5.9-1.5,10.7-4.4,14.4
		C630.7,827.3,626.5,829.2,621,829.2L621,829.2z M620.2,795.4c-3.1,0-5.8,1.2-8.2,3.6c-2.4,2.4-3.5,5.8-3.5,10.1
		c0,4.5,1.2,7.9,3.5,10.3s5.1,3.5,8.2,3.5c3.3,0,5.9-1.3,7.9-3.9c1.9-2.6,2.9-5.9,2.9-9.8c0-4-1-7.3-2.9-9.9
		C626.2,796.7,623.5,795.4,620.2,795.4z"/>
	<path class="st2" d="M678.6,809.2h-28c0.9,9.2,5.7,13.8,14.5,13.8c4,0,7.7-0.8,11.1-2.3l1,5.6c-4.4,2-8.7,3-12.9,3
		c-6.5,0-11.7-1.9-15.3-5.8c-3.7-3.9-5.5-8.7-5.5-14.5c0-5.6,1.7-10.3,5.1-14.1c3.4-3.8,8-5.7,13.8-5.7c4.9,0,8.9,1.4,12,4.3
		c3.1,2.9,4.6,6.9,4.6,12C678.9,806.7,678.8,807.9,678.6,809.2L678.6,809.2z M662,795.4c-5.7,0-9.3,3-10.8,8.9h20.3
		c0-2.8-0.8-5-2.4-6.5C667.5,796.2,665.1,795.4,662,795.4z"/>
	<path class="st2" d="M706.2,788.5l-1.6,7.9h-2.4c-1.6,0-3.3,0.5-5.1,1.5c-1.8,1-3.1,2.1-3.7,3.4v27.1h-7.5v-38.5h5.8l0.8,6.4
		c2.4-2.8,4.6-4.8,6.6-6c2-1.2,4.1-1.9,6.4-1.9H706.2z"/>
	<path class="st2" d="M718.2,781.2h-7.1v-7.9h7.1V781.2L718.2,781.2z M718.2,828.4h-7.1v-38.5h7.1V828.4z"/>
	<path class="st2" d="M787.6,828.4h-7.1v-22.6c0-3.6-0.7-6.2-2.1-7.9c-1.4-1.7-3.7-2.5-6.9-2.5c-6.8,0-10.2,3.6-10.2,10.7v22.3h-7.1
		v-21.2c0-4.4-0.8-7.5-2.3-9.2c-1.5-1.7-3.8-2.6-6.7-2.6c-4.9,0-8.3,1.7-10.2,5v28h-7.1v-38.5h5.5l0.8,4.1c2.1-1.9,4-3.2,5.7-3.9
		c1.7-0.7,3.7-1,5.8-1c5.9,0,10.2,2.6,13.1,7.7c2.7-5.1,7.4-7.7,14.1-7.7c9.9,0,14.8,5.5,14.8,16.6V828.4z"/>
	<path class="st2" d="M829.7,809.2h-28c0.9,9.2,5.7,13.8,14.5,13.8c4,0,7.7-0.8,11.1-2.3l1,5.6c-4.4,2-8.7,3-12.9,3
		c-6.5,0-11.7-1.9-15.3-5.8c-3.7-3.9-5.5-8.7-5.5-14.5c0-5.6,1.7-10.3,5.1-14.1c3.4-3.8,8-5.7,13.8-5.7c4.9,0,8.9,1.4,12,4.3
		c3.1,2.9,4.6,6.9,4.6,12C830,806.7,829.9,807.9,829.7,809.2L829.7,809.2z M813.1,795.4c-5.7,0-9.3,3-10.8,8.9h20.3
		c0-2.8-0.8-5-2.4-6.5C818.6,796.2,816.3,795.4,813.1,795.4z"/>
	<path class="st2" d="M871.8,828.4h-7.1v-21.2c0-4.1-0.8-7.1-2.3-9c-1.5-1.9-4.1-2.8-7.7-2.8c-5.1,0-8.6,1.7-10.5,5v28H837v-38.5
		h5.5l0.8,4.1c3.6-3.2,7.9-4.9,12.7-4.9c10.5,0,15.7,6,15.7,18.1V828.4z"/>
	<path class="st2" d="M901.2,823.7l-0.6,5.5h-6.4c-3.4,0-5.9-0.9-7.6-2.7c-1.6-1.8-2.5-4-2.5-6.5v-24.6h-6.6l0.6-5.5h6v-9.5l7.1-0.7
		v10.2h10.1v5.5h-10.1v20.4c0,3.7,0.4,6,1.2,6.8c0.8,0.8,3.1,1.1,6.9,1.1H901.2z"/>
	<path class="st2" d="M939.7,823.7l-1.1,5.5H938c-3.1,0-5.4-0.4-6.6-1.3c-1.3-0.8-2.4-2.3-3.3-4.2c-3.2,3.7-7.2,5.5-11.8,5.5
		c-3.5,0-6.3-1-8.5-3.1c-2.1-2.1-3.2-4.7-3.2-8c0-2.6,0.7-4.8,2.1-6.7c1.4-1.9,3.3-3.3,5.7-4.3c2.4-1,4.8-1.7,7.3-2.1
		c2.5-0.4,5.1-0.7,7.8-0.7c0-3.5-0.7-5.8-2-7c-1.3-1.2-3.5-1.8-6.4-1.8c-3.4,0-6.8,1.2-10.1,3.5l-1-5.7c3.4-2.7,7.8-4,13-4
		c4.9,0,8.4,1.4,10.5,4.1c2.1,2.7,3.1,7.5,3.1,14.4v7.9c0,3.1,0.3,5.2,0.8,6.4s1.7,1.8,3.6,1.8H939.7L939.7,823.7z M927.5,818.5
		v-9.3c-5.7,0.2-9.7,1-12.2,2.3c-2.4,1.3-3.7,3.4-3.7,6.3c0,4,2,6,6,6c1.9,0,3.7-0.5,5.5-1.4C924.9,821.3,926.3,820,927.5,818.5z"/>
	<path class="st2" d="M962.1,829.2c-6.1,0-10.8-1.9-14.1-5.8c-3.3-3.9-4.9-8.7-4.9-14.4c0-5.9,1.6-10.6,4.8-14.4
		c3.2-3.7,7.9-5.6,14.1-5.6c5.1,0,9.1,0.8,11.9,2.3l-1.1,6.4c-3.2-1.6-6.6-2.3-10-2.3c-4.2,0-7.3,1.2-9.5,3.6
		c-2.1,2.4-3.2,5.7-3.2,10.1c0,4.3,1.1,7.7,3.2,10.2c2.1,2.4,5.3,3.7,9.5,3.7c3.5,0,6.8-0.8,10.1-2.3l0.9,5.7
		C970.8,828.2,966.9,829.2,962.1,829.2L962.1,829.2z M966.1,832.7l-6.9,10.5l-3.6,0.4l5.3-10.4L966.1,832.7z"/>
	<path class="st2" d="M1013.1,823.7l-1.1,5.5h-0.5c-3.1,0-5.4-0.4-6.6-1.3c-1.3-0.8-2.4-2.3-3.3-4.2c-3.2,3.7-7.2,5.5-11.8,5.5
		c-3.5,0-6.3-1-8.5-3.1c-2.1-2.1-3.2-4.7-3.2-8c0-2.6,0.7-4.8,2.1-6.7c1.4-1.9,3.3-3.3,5.7-4.3c2.4-1,4.8-1.7,7.3-2.1
		c2.5-0.4,5.1-0.7,7.8-0.7c0-3.5-0.7-5.8-2-7c-1.3-1.2-3.5-1.8-6.4-1.8c-3.4,0-6.7,1.2-10.1,3.5l-1-5.7c3.4-2.7,7.8-4,13-4
		c4.9,0,8.4,1.4,10.5,4.1c2.1,2.7,3.1,7.5,3.1,14.4v7.9c0,3.1,0.3,5.2,0.8,6.4c0.5,1.2,1.7,1.8,3.6,1.8H1013.1L1013.1,823.7z
		 M1000.9,818.5v-9.3c-5.7,0.2-9.7,1-12.2,2.3c-2.4,1.3-3.7,3.4-3.7,6.3c0,4,2,6,6,6c1.9,0,3.7-0.5,5.5-1.4
		C998.3,821.3,999.8,820,1000.9,818.5L1000.9,818.5z M999.7,781.6c-1,0-2.8-0.7-5.3-2.2c-2.6-1.4-4.3-2.2-5-2.2
		c-2.8,0-4.6,1.4-5.6,4.2l-2.8-0.8c0.6-2.4,1.6-4.3,3.2-5.5c1.6-1.2,3.2-1.8,4.8-1.8c1.1,0,3,0.6,5.7,1.9c2.7,1.3,4.5,1.9,5.3,1.9
		c2.2,0,4-1.3,5.4-4l2.7,0.7c-0.6,2.3-1.6,4.2-3.1,5.6C1003.5,780.9,1001.7,781.6,999.7,781.6z"/>
	<path class="st2" d="M1049.2,823.5c-3.4,3.8-8,5.7-13.9,5.7c-5.9,0-10.5-1.9-13.9-5.7c-3.4-3.8-5.1-8.6-5.1-14.3
		c0-5.8,1.7-10.6,5.1-14.4c3.4-3.8,8-5.7,13.9-5.7c5.9,0,10.5,1.9,13.9,5.7c3.4,3.8,5.1,8.6,5.1,14.4
		C1054.3,814.9,1052.6,819.7,1049.2,823.5L1049.2,823.5z M1044.1,799c-2.1-2.4-5-3.6-8.8-3.6c-3.8,0-6.7,1.2-8.8,3.6
		c-2.1,2.4-3.1,5.8-3.1,10.1c0,4.4,1,7.7,3.1,10.1c2.1,2.4,5,3.6,8.8,3.6c3.8,0,6.7-1.2,8.8-3.6c2.1-2.4,3.1-5.8,3.1-10.1
		C1047.2,804.8,1046.2,801.4,1044.1,799z"/>
	<path class="st2" d="M557.2,904.7h-28c0.9,9.2,5.7,13.8,14.5,13.8c4,0,7.7-0.8,11.1-2.3l1,5.6c-4.4,2-8.7,3-12.9,3
		c-6.5,0-11.7-1.9-15.3-5.8c-3.7-3.9-5.5-8.7-5.5-14.5c0-5.6,1.7-10.3,5.1-14.1c3.4-3.8,8-5.7,13.8-5.7c4.9,0,8.9,1.4,12,4.3
		c3.1,2.9,4.6,6.9,4.6,12C557.6,902.2,557.5,903.5,557.2,904.7L557.2,904.7z M540.7,890.9c-5.7,0-9.3,3-10.9,8.9h20.3
		c0-2.8-0.8-5-2.4-6.5C546.2,891.7,543.8,890.9,540.7,890.9z"/>
	<path class="st2" d="M624.3,924h-7.1v-22.6c0-3.6-0.7-6.3-2.1-7.9c-1.4-1.7-3.7-2.5-6.9-2.5c-6.8,0-10.2,3.6-10.2,10.7V924h-7.1
		v-21.2c0-4.4-0.8-7.5-2.3-9.2c-1.5-1.7-3.8-2.6-6.7-2.6c-4.9,0-8.3,1.7-10.2,5v28h-7.1v-38.5h5.5l0.8,4.1c2.1-1.9,4-3.2,5.7-3.9
		c1.7-0.7,3.7-1,5.8-1c5.9,0,10.2,2.6,13.1,7.7c2.7-5.1,7.4-7.7,14.1-7.7c9.9,0,14.8,5.5,14.8,16.6V924z"/>
	<path class="st2" d="M648.6,942.6l-2.4,0.4l-0.8-5.5c2.4-0.3,3.9-0.9,4.6-1.8c0.7-1,1.1-3,1.1-6v-44.2h7.1v46.9
		c0,3.3-1,5.7-2.9,7.3C653.5,941.2,651.3,942.2,648.6,942.6L648.6,942.6z M658.3,876.8h-7.1v-7.9h7.1V876.8z"/>
	<path class="st2" d="M698.5,919c-3.4,3.8-8,5.7-13.9,5.7c-5.9,0-10.5-1.9-13.9-5.7c-3.4-3.8-5.1-8.6-5.1-14.3
		c0-5.8,1.7-10.5,5.1-14.3c3.4-3.8,8-5.7,13.9-5.7c5.9,0,10.5,1.9,13.9,5.7c3.4,3.8,5.1,8.6,5.1,14.3
		C703.5,910.5,701.8,915.2,698.5,919L698.5,919z M693.3,894.5c-2.1-2.4-5-3.6-8.8-3.6c-3.8,0-6.7,1.2-8.8,3.6
		c-2.1,2.4-3.1,5.8-3.1,10.1s1,7.7,3.1,10.1c2.1,2.4,5,3.6,8.8,3.6c3.8,0,6.7-1.2,8.8-3.6c2.1-2.4,3.1-5.8,3.1-10.1
		S695.4,897,693.3,894.5z"/>
	<path class="st2" d="M731.4,884l-1.6,7.9h-2.4c-1.6,0-3.3,0.5-5.1,1.5c-1.8,1-3.1,2.1-3.7,3.4V924h-7.5v-38.5h5.8l0.8,6.4
		c2.4-2.8,4.6-4.8,6.6-6c2-1.2,4.1-1.9,6.4-1.9H731.4z"/>
	<path class="st2" d="M771.1,924h-7.1v-21.2c0-4.1-0.8-7.1-2.3-9c-1.5-1.9-4.1-2.8-7.7-2.8c-5.1,0-8.6,1.7-10.5,5v28h-7.1v-38.5h5.5
		l0.8,4.1c3.6-3.2,7.9-4.9,12.7-4.9c10.5,0,15.7,6,15.7,18.1V924z"/>
	<path class="st2" d="M812.5,919.2l-1.1,5.5h-0.5c-3.1,0-5.4-0.4-6.6-1.3c-1.3-0.8-2.4-2.3-3.3-4.2c-3.2,3.7-7.2,5.5-11.8,5.5
		c-3.5,0-6.3-1-8.5-3.1c-2.1-2.1-3.2-4.7-3.2-8c0-2.6,0.7-4.8,2.1-6.7c1.4-1.9,3.3-3.3,5.7-4.3c2.4-1,4.8-1.7,7.3-2.1
		c2.5-0.4,5.1-0.7,7.8-0.7c0-3.5-0.7-5.8-2-7c-1.3-1.2-3.5-1.8-6.4-1.8c-3.4,0-6.8,1.2-10.1,3.5l-1-5.7c3.4-2.7,7.8-4,13-4
		c4.9,0,8.4,1.4,10.5,4.1c2.1,2.7,3.1,7.5,3.1,14.4v7.9c0,3.1,0.3,5.2,0.8,6.4c0.5,1.2,1.7,1.8,3.6,1.8H812.5L812.5,919.2z
		 M800.3,914v-9.3c-5.7,0.2-9.7,1-12.2,2.3c-2.4,1.3-3.7,3.4-3.7,6.3c0,4,2,6,6,6c1.9,0,3.7-0.5,5.5-1.4
		C797.7,916.9,799.2,915.6,800.3,914z"/>
	<path class="st2" d="M831.3,919.2l-1,5.5H828c-3.5,0-6-0.9-7.6-2.7c-1.6-1.8-2.4-4-2.4-6.6V865h7.1v46.5c0,3.3,0.4,5.4,1.1,6.4
		C826.9,918.8,828.6,919.2,831.3,919.2z"/>
	<path class="st2" d="M843.7,876.8h-7.1v-7.9h7.1V876.8L843.7,876.8z M843.7,924h-7.1v-38.5h7.1V924z"/>
	<path class="st2" d="M864.2,924.7c-5.5,0-9.9-1.1-13.1-3.4l0.9-6.9c1,0.9,2.6,1.8,4.8,2.7c2.2,0.8,4.5,1.3,7.1,1.3
		c5.2,0,7.7-1.6,7.7-4.8c0-2.8-2.6-5-7.7-6.4c-1.4-0.4-2.5-0.7-3.3-1c-0.8-0.3-1.8-0.7-3.1-1.3c-1.3-0.6-2.3-1.3-2.9-2
		c-0.7-0.7-1.3-1.6-1.8-2.8c-0.5-1.2-0.8-2.5-0.8-4c0-3.3,1.2-6,3.5-8.2c2.3-2.2,6-3.3,10.9-3.3c3.7,0,7.2,0.8,10.6,2.5l-0.9,6.4
		c-2.8-2.3-5.9-3.4-9.5-3.4c-5,0-7.5,1.7-7.5,5.2c0,1.7,0.6,2.9,1.9,3.7c1.3,0.8,3.6,1.7,7.1,2.7c1.3,0.4,2.4,0.8,3.4,1.2
		c1,0.4,2.1,1.1,3.5,1.9c1.4,0.9,2.4,2,3.2,3.4c0.7,1.4,1.1,3.1,1.1,5c0,1.4-0.2,2.7-0.7,4c-0.4,1.2-1.2,2.5-2.2,3.6
		c-1,1.2-2.6,2.1-4.7,2.8C869.4,924.4,867,924.7,864.2,924.7z"/>
	<path class="st2" d="M945.6,924h-7.1v-22.6c0-3.6-0.7-6.3-2.1-7.9c-1.4-1.7-3.7-2.5-6.9-2.5c-6.8,0-10.2,3.6-10.2,10.7V924h-7.1
		v-21.2c0-4.4-0.8-7.5-2.3-9.2c-1.5-1.7-3.8-2.6-6.7-2.6c-4.9,0-8.3,1.7-10.2,5v28h-7.1v-38.5h5.5l0.8,4.1c2.1-1.9,4-3.2,5.7-3.9
		c1.7-0.7,3.7-1,5.8-1c5.9,0,10.2,2.6,13.1,7.7c2.7-5.1,7.4-7.7,14.1-7.7c9.9,0,14.8,5.5,14.8,16.6V924z"/>
	<path class="st2" d="M985.4,919c-3.4,3.8-8,5.7-13.9,5.7c-5.9,0-10.5-1.9-13.9-5.7c-3.4-3.8-5.1-8.6-5.1-14.3
		c0-5.8,1.7-10.5,5.1-14.3c3.4-3.8,8-5.7,13.9-5.7c5.9,0,10.5,1.9,13.9,5.7c3.4,3.8,5.1,8.6,5.1,14.3
		C990.5,910.5,988.8,915.2,985.4,919L985.4,919z M980.3,894.5c-2.1-2.4-5-3.6-8.8-3.6c-3.8,0-6.7,1.2-8.8,3.6
		c-2.1,2.4-3.1,5.8-3.1,10.1s1,7.7,3.1,10.1c2.1,2.4,5,3.6,8.8,3.6c3.8,0,6.7-1.2,8.8-3.6c2.1-2.4,3.1-5.8,3.1-10.1
		S982.3,897,980.3,894.5z"/>
</g>
</svg>
